<mxfile host="app.diagrams.net" agent="Mozilla/5.0 (Windows NT 10.0; Win64; x64) AppleWebKit/537.36 (KHTML, like Gecko) Chrome/130.0.0.0 Safari/537.36" version="24.8.6">
  <diagram name="페이지-1" id="DHSffgG8sHPhNHdlFI-V">
    <mxGraphModel dx="826" dy="643" grid="1" gridSize="10" guides="1" tooltips="1" connect="1" arrows="1" fold="1" page="1" pageScale="1" pageWidth="827" pageHeight="1169" math="0" shadow="0">
      <root>
        <mxCell id="0" />
        <mxCell id="1" parent="0" />
        <mxCell id="iWjCztitFlVIT7RFn_M2-1" value="" style="ellipse;whiteSpace=wrap;html=1;aspect=fixed;" vertex="1" parent="1">
          <mxGeometry x="60" y="90" width="80" height="80" as="geometry" />
        </mxCell>
        <mxCell id="iWjCztitFlVIT7RFn_M2-2" value="시작" style="ellipse;whiteSpace=wrap;html=1;aspect=fixed;fontFamily=Lucida Console;" vertex="1" parent="1">
          <mxGeometry x="65" y="95" width="70" height="70" as="geometry" />
        </mxCell>
        <mxCell id="iWjCztitFlVIT7RFn_M2-3" value="" style="endArrow=classic;html=1;rounded=0;exitX=1;exitY=0.5;exitDx=0;exitDy=0;" edge="1" parent="1" source="iWjCztitFlVIT7RFn_M2-1" target="iWjCztitFlVIT7RFn_M2-5">
          <mxGeometry width="50" height="50" relative="1" as="geometry">
            <mxPoint x="410" y="380" as="sourcePoint" />
            <mxPoint x="190" y="130" as="targetPoint" />
          </mxGeometry>
        </mxCell>
        <mxCell id="iWjCztitFlVIT7RFn_M2-4" value="" style="edgeStyle=orthogonalEdgeStyle;rounded=0;orthogonalLoop=1;jettySize=auto;html=1;" edge="1" parent="1" source="iWjCztitFlVIT7RFn_M2-5" target="iWjCztitFlVIT7RFn_M2-7">
          <mxGeometry relative="1" as="geometry" />
        </mxCell>
        <mxCell id="iWjCztitFlVIT7RFn_M2-5" value="몇 명이 참가할지&amp;nbsp;&lt;div&gt;선택한다&lt;/div&gt;" style="ellipse;whiteSpace=wrap;html=1;" vertex="1" parent="1">
          <mxGeometry x="210" y="90" width="120" height="80" as="geometry" />
        </mxCell>
        <mxCell id="iWjCztitFlVIT7RFn_M2-6" value="" style="endArrow=classic;html=1;rounded=0;exitX=0.5;exitY=1;exitDx=0;exitDy=0;" edge="1" parent="1" source="iWjCztitFlVIT7RFn_M2-5">
          <mxGeometry width="50" height="50" relative="1" as="geometry">
            <mxPoint x="410" y="380" as="sourcePoint" />
            <mxPoint x="270" y="200" as="targetPoint" />
          </mxGeometry>
        </mxCell>
        <mxCell id="iWjCztitFlVIT7RFn_M2-7" value="참가자의&lt;div&gt;순서를 정한다&lt;/div&gt;" style="ellipse;whiteSpace=wrap;html=1;" vertex="1" parent="1">
          <mxGeometry x="210" y="200" width="120" height="80" as="geometry" />
        </mxCell>
        <mxCell id="iWjCztitFlVIT7RFn_M2-8" value="" style="endArrow=classic;html=1;rounded=0;" edge="1" parent="1">
          <mxGeometry width="50" height="50" relative="1" as="geometry">
            <mxPoint x="270" y="280" as="sourcePoint" />
            <mxPoint x="270" y="310" as="targetPoint" />
          </mxGeometry>
        </mxCell>
        <mxCell id="iWjCztitFlVIT7RFn_M2-9" value="입력한 단어가&amp;nbsp;&lt;span style=&quot;background-color: initial;&quot;&gt;제시어가 된다&lt;/span&gt;&lt;div&gt;&lt;span style=&quot;background-color: initial;&quot;&gt;&lt;br&gt;&lt;/span&gt;&lt;/div&gt;&lt;div&gt;&lt;span style=&quot;background-color: initial;&quot;&gt;&lt;br&gt;&lt;/span&gt;&lt;/div&gt;&lt;div&gt;&lt;span style=&quot;background-color: initial;&quot;&gt;&lt;br&gt;&lt;/span&gt;&lt;/div&gt;&lt;div&gt;&lt;span style=&quot;background-color: initial;&quot;&gt;&lt;br&gt;&lt;/span&gt;&lt;/div&gt;&lt;div&gt;&lt;span style=&quot;background-color: initial;&quot;&gt;&lt;br&gt;&lt;/span&gt;&lt;/div&gt;&lt;div&gt;&lt;span style=&quot;background-color: initial;&quot;&gt;&lt;br&gt;&lt;/span&gt;&lt;/div&gt;&lt;div&gt;&lt;span style=&quot;background-color: initial;&quot;&gt;&lt;br&gt;&lt;/span&gt;&lt;/div&gt;&lt;div&gt;&lt;span style=&quot;background-color: initial;&quot;&gt;&lt;br&gt;&lt;/span&gt;&lt;/div&gt;&lt;div&gt;&lt;span style=&quot;background-color: initial;&quot;&gt;&lt;br&gt;&lt;/span&gt;&lt;/div&gt;" style="ellipse;whiteSpace=wrap;html=1;" vertex="1" parent="1">
          <mxGeometry x="628" y="280" width="265" height="220" as="geometry" />
        </mxCell>
        <mxCell id="iWjCztitFlVIT7RFn_M2-10" value="" style="endArrow=classic;html=1;rounded=0;exitX=0;exitY=0.5;exitDx=0;exitDy=0;entryX=0.913;entryY=0.227;entryDx=0;entryDy=0;entryPerimeter=0;" edge="1" parent="1" source="iWjCztitFlVIT7RFn_M2-33" target="iWjCztitFlVIT7RFn_M2-9">
          <mxGeometry width="50" height="50" relative="1" as="geometry">
            <mxPoint x="997" y="320" as="sourcePoint" />
            <mxPoint x="877" y="330" as="targetPoint" />
          </mxGeometry>
        </mxCell>
        <mxCell id="iWjCztitFlVIT7RFn_M2-11" value="예" style="edgeLabel;html=1;align=center;verticalAlign=middle;resizable=0;points=[];" vertex="1" connectable="0" parent="iWjCztitFlVIT7RFn_M2-10">
          <mxGeometry x="0.04" relative="1" as="geometry">
            <mxPoint as="offset" />
          </mxGeometry>
        </mxCell>
        <mxCell id="iWjCztitFlVIT7RFn_M2-12" value="" style="endArrow=classic;html=1;rounded=0;exitX=0.5;exitY=1;exitDx=0;exitDy=0;" edge="1" parent="1" source="iWjCztitFlVIT7RFn_M2-33">
          <mxGeometry width="50" height="50" relative="1" as="geometry">
            <mxPoint x="1052" y="349" as="sourcePoint" />
            <mxPoint x="1057" y="420" as="targetPoint" />
          </mxGeometry>
        </mxCell>
        <mxCell id="iWjCztitFlVIT7RFn_M2-13" value="아니요" style="edgeLabel;html=1;align=center;verticalAlign=middle;resizable=0;points=[];" vertex="1" connectable="0" parent="iWjCztitFlVIT7RFn_M2-12">
          <mxGeometry x="-0.24" y="-1" relative="1" as="geometry">
            <mxPoint as="offset" />
          </mxGeometry>
        </mxCell>
        <mxCell id="iWjCztitFlVIT7RFn_M2-14" value="틀렸다고&lt;div&gt;표시한다&lt;/div&gt;" style="ellipse;whiteSpace=wrap;html=1;" vertex="1" parent="1">
          <mxGeometry x="997" y="420" width="120" height="80" as="geometry" />
        </mxCell>
        <mxCell id="iWjCztitFlVIT7RFn_M2-15" value="" style="endArrow=classic;html=1;rounded=0;exitX=0.5;exitY=1;exitDx=0;exitDy=0;" edge="1" parent="1" source="iWjCztitFlVIT7RFn_M2-14">
          <mxGeometry width="50" height="50" relative="1" as="geometry">
            <mxPoint x="1107" y="460" as="sourcePoint" />
            <mxPoint x="1057" y="550" as="targetPoint" />
          </mxGeometry>
        </mxCell>
        <mxCell id="iWjCztitFlVIT7RFn_M2-16" value="" style="ellipse;whiteSpace=wrap;html=1;aspect=fixed;" vertex="1" parent="1">
          <mxGeometry x="1017" y="550.5" width="80" height="80" as="geometry" />
        </mxCell>
        <mxCell id="iWjCztitFlVIT7RFn_M2-17" value="끝" style="ellipse;whiteSpace=wrap;html=1;aspect=fixed;fontFamily=Lucida Console;" vertex="1" parent="1">
          <mxGeometry x="1022" y="555.5" width="70" height="70" as="geometry" />
        </mxCell>
        <mxCell id="iWjCztitFlVIT7RFn_M2-18" value="" style="whiteSpace=wrap;html=1;aspect=fixed;" vertex="1" parent="1">
          <mxGeometry x="230" y="310" width="80" height="80" as="geometry" />
        </mxCell>
        <mxCell id="iWjCztitFlVIT7RFn_M2-19" value="대기" style="whiteSpace=wrap;html=1;aspect=fixed;" vertex="1" parent="1">
          <mxGeometry x="235" y="315" width="70" height="70" as="geometry" />
        </mxCell>
        <mxCell id="iWjCztitFlVIT7RFn_M2-20" value="" style="whiteSpace=wrap;html=1;aspect=fixed;" vertex="1" parent="1">
          <mxGeometry x="370" y="90" width="160" height="71" as="geometry" />
        </mxCell>
        <mxCell id="iWjCztitFlVIT7RFn_M2-21" value="단어 입력&lt;div&gt;(Input 이벤트)&lt;/div&gt;" style="whiteSpace=wrap;html=1;aspect=fixed;" vertex="1" parent="1">
          <mxGeometry x="375" y="95" width="150" height="61" as="geometry" />
        </mxCell>
        <mxCell id="iWjCztitFlVIT7RFn_M2-22" value="" style="endArrow=classic;html=1;rounded=0;exitX=0.5;exitY=1;exitDx=0;exitDy=0;" edge="1" parent="1">
          <mxGeometry width="50" height="50" relative="1" as="geometry">
            <mxPoint x="450" y="161" as="sourcePoint" />
            <mxPoint x="450" y="191" as="targetPoint" />
          </mxGeometry>
        </mxCell>
        <mxCell id="iWjCztitFlVIT7RFn_M2-23" value="입력한 단어를&amp;nbsp;&lt;div&gt;저장한다&lt;/div&gt;" style="ellipse;whiteSpace=wrap;html=1;" vertex="1" parent="1">
          <mxGeometry x="390" y="191" width="120" height="80" as="geometry" />
        </mxCell>
        <mxCell id="iWjCztitFlVIT7RFn_M2-24" value="" style="whiteSpace=wrap;html=1;aspect=fixed;" vertex="1" parent="1">
          <mxGeometry x="857" y="90" width="160" height="71" as="geometry" />
        </mxCell>
        <mxCell id="iWjCztitFlVIT7RFn_M2-25" value="입력 버튼 클릭&lt;br&gt;&lt;div&gt;(click 이벤트)&lt;/div&gt;" style="whiteSpace=wrap;html=1;aspect=fixed;" vertex="1" parent="1">
          <mxGeometry x="862" y="95" width="150" height="61" as="geometry" />
        </mxCell>
        <mxCell id="iWjCztitFlVIT7RFn_M2-26" value="" style="endArrow=classic;html=1;rounded=0;exitX=0.5;exitY=1;exitDx=0;exitDy=0;" edge="1" parent="1">
          <mxGeometry width="50" height="50" relative="1" as="geometry">
            <mxPoint x="937" y="161" as="sourcePoint" />
            <mxPoint x="937" y="191" as="targetPoint" />
          </mxGeometry>
        </mxCell>
        <mxCell id="iWjCztitFlVIT7RFn_M2-27" value="제시어가&lt;div&gt;비어있는가?&lt;/div&gt;" style="rhombus;whiteSpace=wrap;html=1;" vertex="1" parent="1">
          <mxGeometry x="877" y="191" width="120" height="80" as="geometry" />
        </mxCell>
        <mxCell id="iWjCztitFlVIT7RFn_M2-28" value="" style="endArrow=classic;html=1;rounded=0;exitX=0;exitY=0.5;exitDx=0;exitDy=0;" edge="1" parent="1" source="iWjCztitFlVIT7RFn_M2-27">
          <mxGeometry width="50" height="50" relative="1" as="geometry">
            <mxPoint x="1047" y="370" as="sourcePoint" />
            <mxPoint x="750" y="280" as="targetPoint" />
            <Array as="points">
              <mxPoint x="750" y="231" />
            </Array>
          </mxGeometry>
        </mxCell>
        <mxCell id="iWjCztitFlVIT7RFn_M2-29" value="예" style="edgeLabel;html=1;align=center;verticalAlign=middle;resizable=0;points=[];" vertex="1" connectable="0" parent="iWjCztitFlVIT7RFn_M2-28">
          <mxGeometry x="0.3945" y="-1" relative="1" as="geometry">
            <mxPoint as="offset" />
          </mxGeometry>
        </mxCell>
        <mxCell id="iWjCztitFlVIT7RFn_M2-30" value="" style="endArrow=classic;html=1;rounded=0;exitX=1;exitY=0.5;exitDx=0;exitDy=0;" edge="1" parent="1" source="iWjCztitFlVIT7RFn_M2-27">
          <mxGeometry width="50" height="50" relative="1" as="geometry">
            <mxPoint x="1072" y="241" as="sourcePoint" />
            <mxPoint x="1057" y="290" as="targetPoint" />
            <Array as="points">
              <mxPoint x="1057" y="231" />
            </Array>
          </mxGeometry>
        </mxCell>
        <mxCell id="iWjCztitFlVIT7RFn_M2-31" value="예" style="edgeLabel;html=1;align=center;verticalAlign=middle;resizable=0;points=[];" vertex="1" connectable="0" parent="iWjCztitFlVIT7RFn_M2-30">
          <mxGeometry x="0.3945" y="-1" relative="1" as="geometry">
            <mxPoint as="offset" />
          </mxGeometry>
        </mxCell>
        <mxCell id="iWjCztitFlVIT7RFn_M2-32" value="아니요" style="edgeLabel;html=1;align=center;verticalAlign=middle;resizable=0;points=[];" vertex="1" connectable="0" parent="iWjCztitFlVIT7RFn_M2-30">
          <mxGeometry x="0.4118" y="-3" relative="1" as="geometry">
            <mxPoint as="offset" />
          </mxGeometry>
        </mxCell>
        <mxCell id="iWjCztitFlVIT7RFn_M2-33" value="제시어에&lt;div&gt;맞는 단어인가?&lt;/div&gt;" style="rhombus;whiteSpace=wrap;html=1;" vertex="1" parent="1">
          <mxGeometry x="997" y="290" width="120" height="80" as="geometry" />
        </mxCell>
        <mxCell id="iWjCztitFlVIT7RFn_M2-34" value="" style="endArrow=classic;html=1;rounded=0;exitX=0.5;exitY=1;exitDx=0;exitDy=0;" edge="1" parent="1" source="iWjCztitFlVIT7RFn_M2-40">
          <mxGeometry width="50" height="50" relative="1" as="geometry">
            <mxPoint x="760.5" y="500" as="sourcePoint" />
            <mxPoint x="760.5" y="550" as="targetPoint" />
          </mxGeometry>
        </mxCell>
        <mxCell id="iWjCztitFlVIT7RFn_M2-36" value="" style="endArrow=classic;html=1;rounded=0;exitX=0;exitY=0.5;exitDx=0;exitDy=0;" edge="1" parent="1" source="iWjCztitFlVIT7RFn_M2-45">
          <mxGeometry width="50" height="50" relative="1" as="geometry">
            <mxPoint x="610" y="730" as="sourcePoint" />
            <mxPoint x="610" y="780" as="targetPoint" />
          </mxGeometry>
        </mxCell>
        <mxCell id="iWjCztitFlVIT7RFn_M2-37" value="" style="whiteSpace=wrap;html=1;aspect=fixed;" vertex="1" parent="1">
          <mxGeometry x="735" y="990" width="80" height="80" as="geometry" />
        </mxCell>
        <mxCell id="iWjCztitFlVIT7RFn_M2-38" value="대기" style="whiteSpace=wrap;html=1;aspect=fixed;" vertex="1" parent="1">
          <mxGeometry x="740" y="995" width="70" height="70" as="geometry" />
        </mxCell>
        <mxCell id="iWjCztitFlVIT7RFn_M2-39" value="입력한 단어를&amp;nbsp;&lt;div&gt;제시어에 저장한다&lt;/div&gt;" style="ellipse;whiteSpace=wrap;html=1;" vertex="1" parent="1">
          <mxGeometry x="700" y="340" width="120" height="60" as="geometry" />
        </mxCell>
        <mxCell id="iWjCztitFlVIT7RFn_M2-40" value="제시어를&lt;div&gt;화면에 표시한다&lt;/div&gt;" style="ellipse;whiteSpace=wrap;html=1;" vertex="1" parent="1">
          <mxGeometry x="700" y="410" width="120" height="60" as="geometry" />
        </mxCell>
        <mxCell id="iWjCztitFlVIT7RFn_M2-41" value="" style="endArrow=classic;html=1;rounded=0;exitX=0.5;exitY=1;exitDx=0;exitDy=0;" edge="1" parent="1">
          <mxGeometry width="50" height="50" relative="1" as="geometry">
            <mxPoint x="759.5" y="400" as="sourcePoint" />
            <mxPoint x="760" y="410" as="targetPoint" />
          </mxGeometry>
        </mxCell>
        <mxCell id="iWjCztitFlVIT7RFn_M2-42" value="&lt;div&gt;&lt;span style=&quot;background-color: initial;&quot;&gt;다음 참가자에게 차례를 넘긴다&lt;/span&gt;&lt;/div&gt;&lt;div&gt;&lt;span style=&quot;background-color: initial;&quot;&gt;&lt;br&gt;&lt;/span&gt;&lt;/div&gt;&lt;div&gt;&lt;span style=&quot;background-color: initial;&quot;&gt;&lt;br&gt;&lt;/span&gt;&lt;/div&gt;&lt;div&gt;&lt;span style=&quot;background-color: initial;&quot;&gt;&lt;br&gt;&lt;/span&gt;&lt;/div&gt;&lt;div&gt;&lt;span style=&quot;background-color: initial;&quot;&gt;&lt;br&gt;&lt;/span&gt;&lt;/div&gt;&lt;div&gt;&lt;span style=&quot;background-color: initial;&quot;&gt;&lt;br&gt;&lt;/span&gt;&lt;/div&gt;&lt;div&gt;&lt;span style=&quot;background-color: initial;&quot;&gt;&lt;br&gt;&lt;/span&gt;&lt;/div&gt;&lt;div&gt;&lt;br&gt;&lt;/div&gt;&lt;div&gt;&lt;br&gt;&lt;/div&gt;&lt;div&gt;&lt;br&gt;&lt;/div&gt;&lt;div&gt;&lt;br&gt;&lt;/div&gt;&lt;div&gt;&lt;br&gt;&lt;/div&gt;&lt;div&gt;&lt;br&gt;&lt;/div&gt;&lt;div&gt;&lt;br&gt;&lt;/div&gt;&lt;div&gt;&lt;br&gt;&lt;/div&gt;&lt;div&gt;&lt;br&gt;&lt;/div&gt;&lt;div&gt;&lt;br&gt;&lt;/div&gt;&lt;div&gt;&lt;br&gt;&lt;/div&gt;&lt;div&gt;&lt;br&gt;&lt;/div&gt;&lt;div&gt;&lt;br&gt;&lt;/div&gt;&lt;div&gt;&lt;br&gt;&lt;/div&gt;&lt;div&gt;&lt;br&gt;&lt;/div&gt;&lt;div&gt;&lt;br&gt;&lt;/div&gt;" style="ellipse;whiteSpace=wrap;html=1;" vertex="1" parent="1">
          <mxGeometry x="500" y="550.5" width="550" height="379.5" as="geometry" />
        </mxCell>
        <mxCell id="iWjCztitFlVIT7RFn_M2-43" value="현재 순서를&amp;nbsp;&lt;div&gt;파악한다&lt;/div&gt;" style="ellipse;whiteSpace=wrap;html=1;" vertex="1" parent="1">
          <mxGeometry x="720" y="595" width="120" height="60" as="geometry" />
        </mxCell>
        <mxCell id="iWjCztitFlVIT7RFn_M2-44" value="" style="endArrow=classic;html=1;rounded=0;exitX=0.5;exitY=1;exitDx=0;exitDy=0;" edge="1" parent="1">
          <mxGeometry width="50" height="50" relative="1" as="geometry">
            <mxPoint x="779.5" y="656" as="sourcePoint" />
            <mxPoint x="780" y="686" as="targetPoint" />
          </mxGeometry>
        </mxCell>
        <mxCell id="iWjCztitFlVIT7RFn_M2-45" value="현재 순서에 1을 더한 값이&lt;div&gt;NUMBER보다 큰가?&lt;/div&gt;" style="rhombus;whiteSpace=wrap;html=1;" vertex="1" parent="1">
          <mxGeometry x="680" y="686" width="200" height="80" as="geometry" />
        </mxCell>
        <mxCell id="iWjCztitFlVIT7RFn_M2-47" value="다음 순서를&lt;div&gt;1로&lt;/div&gt;" style="ellipse;whiteSpace=wrap;html=1;" vertex="1" parent="1">
          <mxGeometry x="590" y="810" width="120" height="60" as="geometry" />
        </mxCell>
        <mxCell id="iWjCztitFlVIT7RFn_M2-48" value="다음 순서를&lt;div&gt;현재 순서 + 1로&lt;/div&gt;" style="ellipse;whiteSpace=wrap;html=1;" vertex="1" parent="1">
          <mxGeometry x="850" y="810" width="120" height="60" as="geometry" />
        </mxCell>
        <mxCell id="iWjCztitFlVIT7RFn_M2-49" value="" style="endArrow=classic;html=1;rounded=0;exitX=0;exitY=0.5;exitDx=0;exitDy=0;" edge="1" parent="1" source="iWjCztitFlVIT7RFn_M2-45">
          <mxGeometry width="50" height="50" relative="1" as="geometry">
            <mxPoint x="600" y="716" as="sourcePoint" />
            <mxPoint x="640" y="811" as="targetPoint" />
            <Array as="points">
              <mxPoint x="640" y="726" />
            </Array>
          </mxGeometry>
        </mxCell>
        <mxCell id="iWjCztitFlVIT7RFn_M2-50" value="예" style="edgeLabel;html=1;align=center;verticalAlign=middle;resizable=0;points=[];" vertex="1" connectable="0" parent="iWjCztitFlVIT7RFn_M2-49">
          <mxGeometry x="0.344" y="1" relative="1" as="geometry">
            <mxPoint as="offset" />
          </mxGeometry>
        </mxCell>
        <mxCell id="iWjCztitFlVIT7RFn_M2-56" value="" style="endArrow=classic;html=1;rounded=0;exitX=1;exitY=0.5;exitDx=0;exitDy=0;entryX=0.5;entryY=0;entryDx=0;entryDy=0;" edge="1" parent="1" source="iWjCztitFlVIT7RFn_M2-45" target="iWjCztitFlVIT7RFn_M2-48">
          <mxGeometry width="50" height="50" relative="1" as="geometry">
            <mxPoint x="789.5" y="666" as="sourcePoint" />
            <mxPoint x="790" y="696" as="targetPoint" />
            <Array as="points">
              <mxPoint x="910" y="726" />
            </Array>
          </mxGeometry>
        </mxCell>
        <mxCell id="iWjCztitFlVIT7RFn_M2-57" value="아니요" style="edgeLabel;html=1;align=center;verticalAlign=middle;resizable=0;points=[];" vertex="1" connectable="0" parent="iWjCztitFlVIT7RFn_M2-56">
          <mxGeometry x="0.193" y="-3" relative="1" as="geometry">
            <mxPoint as="offset" />
          </mxGeometry>
        </mxCell>
        <mxCell id="iWjCztitFlVIT7RFn_M2-64" value="" style="group" vertex="1" connectable="0" parent="1">
          <mxGeometry x="649" y="870" width="262" height="70" as="geometry" />
        </mxCell>
        <mxCell id="iWjCztitFlVIT7RFn_M2-62" value="" style="endArrow=classic;html=1;rounded=0;exitX=0.5;exitY=1;exitDx=0;exitDy=0;" edge="1" parent="iWjCztitFlVIT7RFn_M2-64" source="iWjCztitFlVIT7RFn_M2-47">
          <mxGeometry width="50" height="50" relative="1" as="geometry">
            <mxPoint x="106" y="-20" as="sourcePoint" />
            <mxPoint x="126" y="120" as="targetPoint" />
            <Array as="points">
              <mxPoint y="70" />
              <mxPoint x="126" y="70" />
            </Array>
          </mxGeometry>
        </mxCell>
        <mxCell id="iWjCztitFlVIT7RFn_M2-63" value="" style="endArrow=none;html=1;rounded=0;" edge="1" parent="iWjCztitFlVIT7RFn_M2-64">
          <mxGeometry width="50" height="50" relative="1" as="geometry">
            <mxPoint x="110" y="70" as="sourcePoint" />
            <mxPoint x="262" as="targetPoint" />
            <Array as="points">
              <mxPoint x="262" y="70" />
            </Array>
          </mxGeometry>
        </mxCell>
      </root>
    </mxGraphModel>
  </diagram>
</mxfile>
